<?xml version="1.0" encoding="UTF-8" ?>
<!DOCTYPE svg PUBLIC "-//W3C//DTD SVG 1.1//EN" "http://www.w3.org/Graphics/SVG/1.1/DTD/svg11.dtd">
<svg width="825pt" height="901pt" viewBox="0 0 825 901" version="1.1" xmlns="http://www.w3.org/2000/svg">
<g id="#040303ff">
<path fill="#040303" opacity="1.00" d=" M 609.64 0.00 L 626.57 0.00 C 629.29 0.31 631.93 1.03 634.55 1.80 C 626.82 6.62 617.94 9.16 609.05 10.83 C 598.04 12.87 586.91 14.24 575.93 16.43 C 573.35 16.94 570.88 17.85 568.45 18.82 C 576.99 21.69 586.11 21.50 595.00 22.08 C 622.65 23.09 650.34 21.92 677.95 20.25 C 694.72 19.39 711.71 20.50 727.88 25.26 C 742.61 29.56 757.13 35.97 768.60 46.37 C 771.97 49.24 774.18 53.19 775.05 57.52 C 772.19 58.44 769.15 59.05 766.18 58.34 C 759.41 56.91 753.27 53.61 746.94 50.96 C 732.55 44.85 717.34 40.59 701.82 38.71 C 696.53 38.26 691.06 37.76 685.89 39.23 C 691.52 44.99 701.43 42.89 706.99 48.91 C 708.21 51.70 707.79 54.93 708.97 57.74 C 710.73 59.98 713.61 60.84 716.22 61.67 C 728.23 65.00 740.85 64.66 752.99 67.27 C 771.76 71.28 789.66 78.97 805.92 89.10 C 812.75 93.51 819.64 98.13 825.00 104.33 L 825.00 107.33 C 818.32 105.36 812.37 101.68 806.16 98.64 C 768.68 80.71 726.90 75.41 686.00 71.43 C 675.02 70.17 663.88 69.24 653.28 65.96 C 650.41 64.98 647.30 64.02 645.27 61.63 C 644.63 58.78 647.97 58.23 649.99 57.61 C 659.90 55.45 670.15 56.79 680.04 58.45 C 684.33 59.19 688.73 59.12 692.99 58.21 C 690.47 55.86 687.64 53.81 684.40 52.59 C 676.21 49.44 667.63 47.46 659.06 45.67 C 609.52 36.23 557.92 33.31 508.42 44.59 C 499.73 46.79 490.52 48.62 483.28 54.25 C 487.72 55.55 492.37 55.78 496.95 55.30 C 505.99 54.42 514.99 53.07 524.07 52.60 C 550.40 51.50 576.87 52.99 602.84 57.58 C 609.08 58.72 615.54 59.73 621.09 63.02 C 615.78 63.82 610.41 63.47 605.06 63.35 C 542.10 62.44 479.51 75.05 420.15 95.50 C 405.50 100.62 390.88 105.97 376.96 112.86 C 344.56 128.69 314.82 149.41 286.51 171.61 C 244.88 204.57 206.14 241.13 169.98 279.99 C 164.56 284.80 158.45 289.08 151.50 291.34 C 152.69 287.61 154.52 284.11 156.87 280.99 C 165.47 269.34 174.93 258.37 183.95 247.06 C 188.19 241.72 192.70 236.48 195.67 230.29 C 184.99 235.05 177.11 245.70 165.02 247.11 C 167.28 239.87 172.78 234.38 177.79 228.94 C 191.34 214.75 205.83 201.45 221.11 189.13 C 249.84 166.40 280.84 146.72 312.27 127.96 C 297.37 134.70 282.47 141.52 267.01 146.89 C 263.27 148.24 259.35 149.00 255.40 149.33 C 258.41 145.64 262.16 142.66 266.19 140.15 C 285.79 127.55 306.18 116.15 327.24 106.15 C 358.20 91.15 390.40 78.96 422.41 66.45 C 429.90 63.38 437.55 60.60 444.60 56.59 C 446.95 55.41 448.38 53.16 449.54 50.89 C 442.84 48.12 435.50 48.63 428.47 47.58 C 428.45 47.02 428.42 45.91 428.40 45.35 C 436.81 39.94 446.19 36.37 455.33 32.44 C 478.45 22.79 502.72 16.19 527.19 11.02 C 554.36 5.37 581.93 1.58 609.64 0.00 Z" />
<path fill="#040303" opacity="1.00" d=" M 296.66 6.81 C 301.37 4.99 306.33 3.70 311.41 3.71 C 309.78 8.26 305.83 11.33 301.87 13.79 C 286.53 22.86 271.82 32.96 257.58 43.65 C 245.37 52.95 233.31 62.54 222.55 73.53 C 219.68 76.39 217.38 79.74 214.98 82.99 C 213.51 84.83 211.66 87.10 209.01 86.72 C 206.99 86.96 206.23 84.62 206.21 83.00 C 205.86 75.63 210.33 69.24 214.42 63.50 C 226.21 48.19 241.69 36.14 258.06 26.07 C 270.34 18.56 283.19 11.90 296.66 6.81 Z" />
<path fill="#040303" opacity="1.00" d=" M 400.04 16.43 C 406.88 16.07 413.82 15.52 420.61 16.75 C 417.50 18.54 414.16 19.87 410.72 20.84 C 390.49 26.83 370.15 32.63 350.56 40.53 C 336.60 46.22 322.82 52.74 310.66 61.73 C 289.45 77.08 269.01 93.43 248.07 109.14 C 243.43 112.49 238.97 116.30 233.50 118.24 C 236.65 112.42 241.37 107.70 245.40 102.50 C 261.00 84.38 278.72 68.00 298.41 54.38 C 328.38 33.54 363.40 19.04 400.04 16.43 Z" />
<path fill="#040303" opacity="1.00" d=" M 152.35 77.35 C 157.46 72.17 162.80 66.69 169.93 64.43 C 170.60 64.82 171.93 65.59 172.60 65.97 C 172.59 73.27 168.38 79.54 164.25 85.22 C 159.21 92.11 153.03 98.04 147.00 104.05 C 137.60 114.13 129.53 125.67 124.53 138.58 C 122.96 142.51 122.12 146.74 122.65 150.97 C 127.61 149.63 130.17 144.93 132.89 141.01 C 141.45 127.62 152.02 115.28 165.04 106.06 C 167.89 103.94 171.23 102.59 174.72 101.97 C 173.90 107.48 170.59 112.06 167.76 116.70 C 157.51 132.84 147.08 148.87 137.34 165.34 C 130.86 176.11 124.87 187.36 121.46 199.53 C 120.29 203.85 119.24 208.72 121.59 212.85 C 123.88 211.48 126.20 210.05 127.91 207.97 C 134.97 199.55 139.38 189.40 144.97 180.03 C 155.60 162.61 169.87 147.27 187.03 136.13 C 190.40 133.95 194.08 132.17 198.08 131.49 C 196.95 133.49 195.64 135.40 193.99 137.01 C 186.89 143.74 181.48 151.98 176.03 160.04 C 159.42 185.71 145.25 212.90 132.66 240.74 C 126.69 253.73 122.15 267.44 114.68 279.70 C 111.58 284.80 108.06 289.83 103.20 293.42 C 101.33 294.93 98.78 294.54 96.55 294.71 C 92.00 285.10 102.10 276.92 100.81 267.42 C 97.81 267.35 95.59 269.62 93.69 271.63 C 86.28 279.92 82.99 290.79 77.03 300.01 C 74.14 304.44 71.44 309.59 66.27 311.69 C 65.86 307.35 66.35 302.99 67.59 298.82 C 77.14 266.33 79.42 232.35 86.17 199.26 C 88.23 189.30 90.51 179.31 94.39 169.87 C 103.69 147.53 116.30 126.76 129.40 106.48 C 136.00 96.00 143.83 86.33 152.35 77.35 Z" />
<path fill="#040303" opacity="1.00" d=" M 547.08 85.43 C 587.62 81.42 628.97 82.17 668.80 91.28 C 691.26 96.45 713.22 104.28 733.37 115.57 C 759.19 130.21 779.90 152.86 794.27 178.67 C 803.21 194.71 810.02 211.97 814.22 229.85 C 815.70 236.95 817.42 244.22 816.43 251.51 C 816.10 251.50 815.44 251.50 815.10 251.50 C 812.55 247.60 811.34 243.02 809.18 238.92 C 793.83 207.64 767.51 182.58 737.32 165.68 C 730.20 162.11 723.11 157.80 715.03 156.96 C 716.99 159.02 719.25 160.76 721.57 162.40 C 752.75 184.50 777.39 215.70 791.60 251.18 C 796.83 264.30 800.81 278.02 802.30 292.09 C 802.80 296.53 802.72 301.10 801.09 305.32 C 797.07 300.65 796.36 294.35 794.18 288.80 C 787.92 271.92 778.81 256.23 768.70 241.38 C 759.88 228.74 750.35 216.48 739.04 205.95 C 734.86 202.14 730.33 198.29 724.64 197.07 C 725.37 203.47 730.22 209.13 728.73 215.76 C 719.64 215.65 713.53 208.27 707.27 202.74 C 695.61 191.79 681.87 183.20 667.19 176.91 C 645.06 167.32 621.47 161.60 597.82 157.24 C 558.95 149.85 518.52 149.13 479.81 157.91 C 464.28 161.51 448.91 166.36 434.78 173.82 C 429.49 176.78 423.67 179.69 420.64 185.24 C 430.00 185.34 438.96 182.29 447.98 180.22 C 472.27 173.88 496.98 168.76 522.07 167.06 C 547.21 165.14 573.56 166.28 596.71 177.28 C 601.93 179.89 607.73 182.79 610.10 188.51 C 606.58 188.94 602.99 188.64 599.71 187.27 C 578.30 178.88 554.69 179.49 532.21 181.92 C 491.87 186.96 452.63 198.92 415.18 214.52 C 401.77 219.49 388.01 223.48 374.76 228.90 C 354.86 236.86 335.87 247.54 319.80 261.83 C 305.47 274.13 294.10 289.42 284.22 305.42 C 295.52 296.22 309.96 288.97 324.89 290.62 C 324.64 292.27 324.98 294.26 323.65 295.54 C 319.36 300.31 312.97 302.25 308.03 306.19 C 289.86 319.79 276.90 338.88 264.95 357.87 C 259.24 366.88 254.07 376.24 248.04 385.05 C 245.81 388.18 243.29 392.20 238.85 391.75 C 236.89 386.64 237.02 380.94 238.87 375.81 C 244.55 358.89 256.48 345.25 265.80 330.33 C 242.46 343.98 225.10 366.59 216.16 391.95 C 207.82 414.96 205.46 439.69 205.66 464.02 C 206.25 488.86 209.55 513.56 214.06 537.97 C 215.47 545.95 217.06 553.90 218.17 561.93 C 218.65 564.65 218.26 567.41 217.46 570.04 C 211.08 565.61 207.40 558.52 204.27 551.64 C 195.73 531.68 192.03 510.13 187.39 489.04 C 185.56 481.15 184.14 472.99 180.10 465.85 C 178.41 466.38 176.53 466.92 175.84 468.77 C 169.92 479.74 169.63 492.71 170.74 504.84 C 173.13 526.37 180.43 546.92 187.69 567.20 C 189.33 572.23 191.87 577.37 190.65 582.80 C 183.21 581.32 177.97 574.57 170.30 574.01 C 171.68 581.19 175.78 587.40 179.41 593.62 C 192.54 614.25 215.64 626.48 239.11 631.27 C 249.68 633.32 260.75 634.76 271.38 632.31 C 271.37 631.99 271.34 631.36 271.33 631.04 C 262.12 625.31 256.93 614.09 257.14 603.42 C 257.76 603.43 259.01 603.46 259.64 603.47 C 263.50 608.17 267.12 613.30 272.54 616.33 C 286.39 624.54 302.54 627.18 318.02 630.69 C 322.34 631.57 326.69 632.66 330.48 635.00 C 315.62 639.06 299.65 636.89 284.96 641.83 C 283.00 642.47 280.12 644.10 281.55 646.52 C 285.82 651.00 292.24 652.34 297.72 654.81 C 297.76 655.21 297.85 656.01 297.90 656.41 C 294.55 656.39 291.19 656.41 287.87 656.86 C 263.28 659.78 238.05 659.14 213.99 652.91 C 207.80 651.43 201.80 649.27 195.68 647.57 C 193.56 647.09 190.92 646.11 189.35 648.23 C 188.69 652.38 191.16 656.28 194.05 659.04 C 199.03 663.58 205.49 666.01 211.82 668.04 C 225.20 672.11 239.16 673.64 253.01 675.14 C 257.73 675.67 262.53 675.75 267.14 676.97 C 267.42 677.21 268.00 677.70 268.28 677.95 C 257.74 682.23 246.27 683.57 235.00 684.34 C 214.52 685.05 193.77 680.38 175.85 670.36 C 161.70 662.43 149.28 651.59 139.14 638.96 C 130.20 628.59 124.05 616.24 118.42 603.86 C 109.38 583.30 103.63 561.30 101.51 538.94 C 98.67 510.51 101.88 481.71 109.00 454.11 C 110.54 447.53 112.86 441.11 113.67 434.37 C 105.93 440.14 101.25 448.86 97.32 457.46 C 84.63 487.28 79.99 519.60 73.01 551.03 C 72.21 554.97 70.89 558.80 68.94 562.32 C 65.71 556.44 65.26 549.52 66.05 542.98 C 68.73 491.54 81.67 439.89 108.56 395.60 C 124.71 368.66 145.89 344.92 169.99 324.85 C 177.73 318.26 185.85 312.14 193.77 305.76 C 197.56 302.57 201.92 299.34 203.00 294.17 C 195.33 294.55 188.90 299.26 182.15 302.40 C 173.26 306.72 164.94 312.80 155.04 314.53 C 155.93 311.56 157.35 308.76 159.45 306.46 C 168.49 295.89 178.67 286.37 188.61 276.66 C 228.55 236.54 272.68 200.25 321.60 171.56 C 355.52 151.77 391.76 135.55 429.92 125.92 C 438.80 123.48 448.02 122.45 456.84 119.78 C 450.99 118.66 445.02 119.20 439.15 119.74 C 428.44 120.91 417.80 122.58 407.15 124.16 C 401.13 125.01 395.06 126.17 388.95 125.55 C 391.27 123.98 393.75 122.63 396.38 121.65 C 445.02 103.97 495.47 90.51 547.08 85.43 Z" />
<path fill="#040303" opacity="1.00" d=" M 56.66 233.69 C 60.22 227.16 63.99 220.33 70.32 216.07 C 70.29 221.48 69.16 226.80 67.66 231.97 C 60.06 258.91 50.90 285.50 45.96 313.12 C 43.71 325.28 43.48 337.69 43.55 350.02 C 43.61 362.33 43.42 374.65 43.73 386.96 C 43.74 395.45 43.94 404.05 41.96 412.38 C 39.58 411.43 37.08 410.05 36.58 407.27 C 33.70 397.11 36.86 386.46 35.38 376.15 C 35.13 374.42 33.73 372.36 31.76 372.79 C 27.78 373.80 25.61 377.76 24.74 381.48 C 22.76 390.21 23.99 399.21 24.84 408.01 C 27.96 434.40 33.82 460.47 35.35 487.05 C 35.79 496.05 35.71 505.16 33.90 514.02 C 33.26 517.65 31.30 520.82 28.95 523.59 C 26.31 520.67 24.69 516.97 24.80 512.99 C 24.42 496.54 22.62 480.15 20.02 463.91 C 18.72 456.19 17.54 448.24 13.66 441.31 C 9.50 447.51 10.13 455.19 8.94 462.23 C 8.33 464.43 7.89 468.03 4.82 467.66 C 0.74 462.56 0.70 455.62 0.00 449.43 L 0.00 423.66 C 1.17 391.67 3.18 359.56 9.52 328.12 C 11.13 320.94 12.17 313.41 16.02 306.99 C 18.37 314.44 17.88 322.34 18.20 330.04 C 18.28 342.51 17.77 354.99 17.97 367.45 C 20.03 360.77 21.21 353.86 22.62 347.03 C 27.36 323.67 32.57 300.38 39.50 277.56 C 44.18 262.57 49.36 247.64 56.66 233.69 Z" />
<path fill="#040303" opacity="1.00" d=" M 461.44 234.63 C 481.12 227.31 501.98 223.59 522.84 221.68 C 531.20 221.28 539.58 220.46 547.95 221.15 C 571.33 220.81 594.77 224.52 616.95 231.89 C 632.31 236.91 646.85 245.43 657.30 257.93 C 668.49 271.22 675.06 288.63 674.43 306.06 C 674.30 310.36 673.51 314.97 670.20 318.03 C 666.78 313.71 663.87 308.98 660.04 304.99 C 648.94 293.00 634.24 284.95 619.00 279.45 C 597.27 271.73 574.21 268.68 551.30 267.08 C 545.97 266.53 540.55 266.47 535.37 264.97 C 546.72 259.73 559.86 260.68 571.37 255.81 C 563.12 253.48 554.45 253.79 545.97 253.53 C 521.43 253.47 497.08 258.55 474.07 266.90 C 457.65 272.69 441.92 280.17 425.86 286.85 C 414.87 291.43 402.92 293.76 391.00 293.31 C 383.63 293.46 375.74 292.09 368.89 295.54 C 366.12 296.78 363.94 298.92 361.94 301.14 C 365.36 303.94 369.47 305.66 373.17 308.02 C 371.94 309.17 370.75 310.37 369.36 311.33 C 353.74 320.93 340.14 333.37 326.24 345.24 C 321.81 348.84 318.11 353.64 312.55 355.58 C 308.70 357.31 304.47 358.00 300.27 357.62 C 300.21 354.58 300.96 351.57 302.75 349.08 C 308.76 339.93 316.27 331.86 323.82 323.97 C 341.45 305.88 359.59 288.26 378.91 271.98 C 371.87 275.11 365.09 279.04 357.55 280.91 C 355.72 281.45 353.85 280.82 352.04 280.57 C 353.40 276.26 356.05 272.48 359.51 269.58 C 368.09 262.17 377.95 256.41 387.82 250.91 C 404.38 241.87 421.50 233.82 439.19 227.26 C 445.26 225.06 451.47 222.94 457.97 222.51 C 458.49 223.35 459.02 224.19 459.55 225.04 C 456.13 232.32 449.55 237.18 444.19 242.93 C 449.96 240.20 455.40 236.78 461.44 234.63 Z" />
<path fill="#040303" opacity="1.00" d=" M 483.92 287.62 C 518.37 284.13 554.49 287.66 585.81 303.24 C 592.18 306.70 598.98 310.38 602.74 316.86 C 602.30 317.50 601.42 318.79 600.98 319.43 C 596.08 319.51 591.11 318.58 586.86 316.05 C 570.23 306.64 551.20 301.00 531.99 301.49 C 513.01 301.47 494.91 307.85 477.00 313.38 C 468.54 315.91 458.76 318.25 450.79 313.05 C 456.51 306.92 465.55 306.70 472.57 302.74 C 469.34 301.88 465.97 301.36 462.64 301.86 C 451.23 303.47 440.70 308.49 430.45 313.51 C 408.42 324.74 387.62 338.18 366.03 350.19 C 362.69 352.08 359.06 353.65 355.14 353.54 C 356.82 348.06 360.96 343.88 365.12 340.15 C 379.52 327.28 396.05 316.95 413.37 308.49 C 435.52 297.73 459.40 290.30 483.92 287.62 Z" />
<path fill="#040303" opacity="1.00" d=" M 100.56 309.57 C 104.38 303.86 109.04 297.84 116.02 296.04 C 116.32 296.74 116.93 298.12 117.24 298.82 C 115.82 309.64 112.78 320.22 108.14 330.10 C 105.42 336.34 101.74 342.11 99.13 348.41 C 105.39 345.69 110.27 340.75 114.58 335.60 C 122.88 326.07 129.42 315.16 137.71 305.64 C 139.43 303.42 141.94 302.13 144.74 302.00 C 143.09 309.79 137.87 316.09 133.92 322.82 C 110.83 358.57 87.19 394.43 71.22 434.07 C 65.01 449.31 60.83 465.34 59.00 481.69 C 55.66 477.15 55.33 471.36 54.85 465.95 C 53.95 452.20 56.09 438.35 60.26 425.26 C 63.28 416.15 66.91 407.25 70.10 398.20 C 77.84 376.88 84.88 355.30 91.25 333.52 C 93.62 325.29 95.69 316.77 100.56 309.57 Z" />
<path fill="#040303" opacity="1.00" d=" M 686.25 316.41 C 689.61 318.33 692.61 320.85 694.90 323.99 C 701.03 332.25 705.98 341.33 710.27 350.67 C 716.97 365.62 722.10 381.54 722.97 398.00 C 723.64 410.62 725.73 423.17 729.58 435.22 C 731.41 441.40 733.93 447.35 735.61 453.57 C 736.42 456.75 737.11 460.39 735.28 463.36 C 733.63 466.02 730.48 468.27 727.22 467.49 C 724.94 466.71 723.64 464.43 722.54 462.45 C 719.11 455.62 718.14 447.92 715.38 440.84 C 712.64 449.95 712.68 459.56 711.99 468.97 C 710.73 501.83 723.88 533.17 723.49 565.98 C 723.23 586.18 719.08 606.05 716.24 625.98 C 714.86 636.51 712.18 647.00 712.77 657.69 C 715.55 654.36 717.77 650.63 719.82 646.82 C 733.69 621.81 746.78 595.07 748.16 565.98 C 748.88 554.17 745.33 542.72 744.33 531.04 C 742.97 516.76 743.27 502.20 746.36 488.16 C 747.08 484.51 748.72 481.11 751.03 478.21 C 751.54 480.77 752.00 483.36 752.20 485.98 C 752.87 498.90 756.51 511.38 759.04 524.00 C 763.47 545.30 767.48 567.28 764.13 589.04 C 762.96 597.18 759.72 604.78 757.43 612.62 C 753.66 625.39 753.48 638.83 753.90 652.03 C 754.40 679.47 748.31 706.56 739.57 732.43 C 734.01 748.25 727.32 763.86 717.72 777.69 C 714.53 782.32 710.70 786.80 705.33 788.94 C 703.46 782.74 706.68 776.78 708.04 770.86 C 711.84 755.45 714.21 739.72 716.17 723.99 C 717.11 715.06 718.55 706.02 717.33 697.05 C 713.40 704.56 711.76 712.95 709.06 720.92 C 695.53 763.13 680.27 805.03 659.28 844.17 C 651.71 857.49 644.03 871.12 633.11 882.03 C 630.40 884.29 626.69 888.05 622.94 885.92 C 620.54 881.57 622.45 876.48 623.57 872.05 C 629.22 854.54 639.38 838.95 649.78 823.93 C 656.81 813.91 662.74 803.16 668.02 792.13 C 680.34 766.13 689.96 738.87 697.27 711.06 C 699.25 702.49 701.92 693.88 701.43 684.99 C 697.81 689.19 695.61 694.32 693.58 699.42 C 682.15 729.00 667.14 757.19 649.34 783.43 C 644.45 790.29 639.85 797.68 632.88 802.67 C 633.75 794.94 638.02 788.28 641.47 781.50 C 653.37 760.64 660.83 737.67 667.94 714.84 C 679.34 677.08 688.66 638.71 696.34 600.03 C 698.15 589.48 700.72 578.96 700.82 568.20 C 698.86 572.02 697.42 576.07 696.20 580.17 C 690.21 600.13 685.68 620.50 679.59 640.43 C 673.18 661.87 665.72 683.03 656.57 703.47 C 650.64 716.37 644.14 729.16 635.42 740.43 C 632.54 744.25 628.85 747.46 624.40 749.32 C 623.75 742.76 627.73 737.25 631.05 732.02 C 638.39 720.43 643.62 707.49 646.41 694.05 C 647.48 689.24 647.52 684.28 647.11 679.39 C 645.00 680.34 642.89 681.58 641.83 683.74 C 637.89 690.77 634.91 698.29 631.25 705.46 C 607.80 753.94 577.26 799.88 536.32 835.35 C 514.13 854.73 488.97 870.48 462.68 883.66 C 448.33 890.50 433.77 897.32 418.23 901.00 L 412.88 901.00 C 417.15 896.28 422.73 893.17 428.27 890.21 C 460.00 871.49 490.45 850.46 518.56 826.59 C 530.85 815.96 543.02 805.03 553.33 792.42 C 555.62 789.64 557.28 786.42 558.55 783.08 C 548.66 786.44 541.23 796.42 530.11 795.86 C 531.99 789.55 536.20 784.38 540.40 779.46 C 558.28 758.40 579.32 740.30 597.17 719.21 C 619.47 693.45 639.94 665.74 655.01 635.08 C 658.54 627.33 662.74 619.50 663.03 610.80 C 658.42 615.64 655.88 621.89 652.47 627.54 C 646.03 638.43 638.48 648.65 629.96 658.00 C 620.73 667.92 610.52 677.21 598.42 683.50 C 591.70 687.09 583.98 688.45 577.53 692.60 C 572.06 695.98 566.85 700.79 565.75 707.44 C 575.54 703.23 584.78 696.54 595.80 696.19 C 592.79 701.23 587.76 704.50 584.19 709.08 C 573.63 722.53 561.02 734.25 547.53 744.72 C 522.26 764.32 493.80 779.23 465.07 793.01 C 456.02 797.69 446.23 801.37 438.55 808.25 C 438.64 808.82 438.84 809.96 438.93 810.53 C 455.22 809.60 469.08 799.45 484.80 796.15 C 479.55 801.69 472.80 805.42 466.54 809.66 C 450.86 819.71 435.20 829.82 419.00 839.03 C 383.78 858.90 346.09 874.61 306.79 884.36 C 286.57 889.24 265.92 892.98 245.06 893.07 C 240.57 893.12 236.04 892.62 231.83 891.01 C 241.90 885.72 254.51 883.84 261.96 874.54 C 249.02 871.54 235.99 876.02 223.03 876.72 C 193.72 878.79 164.29 876.84 135.09 874.08 C 124.11 872.67 112.83 872.26 102.28 868.64 C 110.11 866.96 118.12 867.93 126.04 868.23 C 150.70 869.22 175.44 868.91 200.00 866.32 C 222.34 863.93 244.66 860.63 266.35 854.66 C 253.28 856.32 240.09 857.09 226.92 856.59 C 224.71 856.49 222.53 856.01 220.40 855.39 C 221.97 853.71 224.07 852.67 226.26 852.06 C 242.01 847.53 258.42 845.98 274.23 841.68 C 295.90 836.00 316.94 828.14 337.51 819.32 C 369.54 805.52 400.55 789.37 430.41 771.36 C 446.32 761.53 462.19 751.45 476.46 739.29 C 482.31 734.48 486.41 728.03 491.55 722.55 C 495.96 717.87 500.56 712.83 506.99 711.07 C 506.22 719.79 497.89 725.28 497.13 733.99 C 503.79 732.70 509.01 728.17 513.96 723.85 C 529.93 709.46 543.56 692.76 557.23 676.23 C 568.60 662.62 579.85 648.90 591.66 635.65 C 595.86 631.03 599.95 626.01 605.73 623.32 C 602.84 637.62 591.54 648.44 588.22 662.60 C 603.29 655.07 613.22 640.46 620.63 625.81 C 630.77 605.63 637.77 584.09 646.03 563.11 C 652.37 546.58 659.34 530.28 667.49 514.56 C 675.28 499.46 681.07 483.38 685.03 466.86 C 691.79 439.14 694.44 410.52 694.22 382.02 C 693.68 366.59 692.65 351.09 689.40 335.96 C 688.05 329.49 685.42 323.13 686.25 316.41 Z" />
<path fill="#040303" opacity="1.00" d=" M 622.61 336.46 C 625.70 336.50 628.05 338.85 630.16 340.84 C 638.13 348.78 643.75 358.74 648.47 368.87 C 656.85 387.35 661.27 407.70 660.82 428.02 C 661.14 448.51 655.91 468.67 648.33 487.58 C 644.99 495.80 641.59 504.14 636.36 511.38 C 634.80 513.75 632.22 515.06 629.76 516.28 C 625.72 511.49 626.14 504.95 626.46 499.10 C 627.41 487.55 630.44 476.24 634.67 465.48 C 641.73 447.91 644.75 428.15 640.20 409.56 C 639.24 406.62 638.56 403.13 635.98 401.15 C 633.77 400.63 633.80 403.13 633.39 404.60 C 631.46 415.42 629.36 427.60 620.77 435.28 C 617.42 431.26 618.23 425.80 618.24 420.97 C 618.68 411.08 618.66 400.92 615.38 391.45 C 610.65 377.27 600.63 365.86 591.91 354.01 C 588.65 349.51 584.78 345.29 582.88 339.97 C 589.83 341.89 595.24 346.91 601.08 350.87 C 611.54 358.23 621.21 366.77 632.27 373.24 C 627.36 364.35 623.00 354.95 621.40 344.84 C 621.15 342.05 620.61 338.76 622.61 336.46 Z" />
<path fill="#040303" opacity="1.00" d=" M 431.48 363.42 C 443.45 355.59 458.37 353.07 472.43 354.84 C 486.39 356.95 498.80 364.63 509.43 373.58 C 514.93 378.55 520.63 383.60 524.23 390.20 C 519.90 389.36 516.98 385.87 513.61 383.35 C 500.20 372.85 482.91 367.98 466.00 368.35 C 455.49 368.17 445.02 369.98 435.00 373.07 C 432.14 374.06 428.76 373.76 426.52 371.60 C 425.45 367.94 428.89 365.30 431.48 363.42 Z" />
<path fill="#040303" opacity="1.00" d=" M 377.83 365.93 C 386.44 361.36 395.39 357.15 404.94 354.94 C 407.38 354.15 409.88 354.87 412.23 355.65 C 410.61 357.55 408.97 359.49 406.86 360.86 C 388.87 372.17 371.72 384.84 355.66 398.76 C 338.67 413.95 322.07 430.60 312.15 451.43 C 308.57 458.54 307.54 466.67 303.68 473.66 C 303.01 475.33 301.19 475.62 299.70 476.14 C 299.05 470.48 299.28 464.72 300.63 459.17 C 304.98 439.68 314.21 421.30 327.09 406.06 C 341.52 389.89 358.77 376.25 377.83 365.93 Z" />
<path fill="#040303" opacity="1.00" d=" M 745.63 380.54 C 750.37 382.62 752.07 387.84 754.22 392.12 C 761.50 408.50 767.02 425.59 772.23 442.72 C 777.88 462.06 783.33 481.56 786.17 501.54 C 787.38 513.93 787.99 526.66 785.01 538.85 C 784.21 540.93 783.35 544.58 780.39 543.58 C 778.84 541.67 778.10 539.27 777.49 536.94 C 774.99 526.82 775.20 516.29 773.40 506.05 C 769.75 484.05 761.73 463.13 755.01 441.96 C 750.04 426.35 745.53 410.40 744.68 393.96 C 744.50 389.47 744.50 384.92 745.63 380.54 Z" />
<path fill="#040303" opacity="1.00" d=" M 404.13 404.28 C 422.34 394.47 443.26 390.80 463.77 390.53 C 463.67 390.93 463.48 391.72 463.38 392.12 C 451.85 395.56 440.00 398.52 429.49 404.57 C 424.25 407.49 419.39 412.22 419.29 418.63 C 422.80 418.93 426.31 418.26 429.46 416.65 C 444.59 409.77 460.18 402.84 476.98 401.64 C 488.45 401.01 500.54 403.13 510.12 409.80 C 517.84 415.11 522.62 424.57 521.66 433.99 C 521.78 437.98 519.87 441.65 516.94 444.27 C 513.54 440.21 511.48 435.15 507.58 431.50 C 497.78 421.89 483.15 418.08 469.73 419.87 C 461.94 420.65 455.93 427.53 454.67 434.98 C 453.98 438.20 456.89 441.08 459.96 441.32 C 463.58 441.27 467.04 439.75 470.67 439.90 C 479.23 441.06 486.64 446.62 491.62 453.48 C 498.71 463.00 501.31 475.29 500.30 486.99 C 499.51 494.73 497.54 502.34 494.57 509.52 C 492.20 515.14 489.72 520.83 485.74 525.52 C 485.17 525.53 484.05 525.55 483.49 525.56 C 481.40 517.69 484.92 509.74 483.48 501.80 C 481.03 503.59 478.69 505.68 477.32 508.44 C 472.36 516.74 471.20 526.74 465.72 534.78 C 457.08 547.82 444.00 557.39 429.89 563.81 C 413.31 571.37 395.14 575.08 377.00 575.88 C 367.52 576.72 357.92 576.52 348.48 575.28 C 345.83 574.61 342.09 573.18 342.33 569.87 C 345.04 566.95 349.16 566.07 352.95 565.61 C 361.29 564.83 369.67 565.56 378.03 565.48 C 393.22 565.50 408.69 561.17 420.82 551.80 C 428.11 546.52 433.99 539.65 439.59 532.67 C 437.09 532.69 434.60 532.73 432.10 532.71 C 432.83 532.86 433.56 533.02 434.29 533.19 C 428.09 533.47 421.83 534.11 415.94 536.19 C 412.04 537.59 408.85 540.33 405.10 542.04 C 400.68 544.03 395.95 545.24 391.17 546.00 C 391.72 546.01 392.27 546.03 392.83 546.06 C 381.02 548.35 369.06 550.20 356.99 549.75 C 340.36 550.16 321.87 547.95 309.25 536.01 C 309.09 532.90 312.87 533.36 314.97 532.78 C 322.29 532.55 329.50 534.74 336.08 537.83 C 346.49 542.51 358.31 540.46 368.93 537.68 C 376.34 535.43 383.97 533.23 390.41 528.77 C 384.47 527.96 378.57 529.11 372.73 530.04 C 358.98 531.83 344.28 530.32 332.25 522.98 C 324.40 518.16 317.99 510.56 315.76 501.50 C 314.60 496.59 313.70 491.59 313.54 486.53 C 318.44 488.73 321.17 493.59 324.83 497.26 C 333.46 507.01 345.83 513.75 358.97 514.28 C 362.74 514.42 366.36 513.19 369.86 511.93 C 364.56 507.42 357.96 504.82 352.59 500.40 C 344.47 494.02 337.39 484.91 337.05 474.18 C 336.96 474.69 336.77 475.72 336.68 476.24 C 336.51 472.03 336.22 467.79 336.81 463.60 C 338.27 453.80 342.64 444.81 345.90 435.55 C 346.29 435.42 347.07 435.16 347.45 435.03 C 347.70 439.04 348.05 443.03 348.56 447.02 C 348.94 449.87 350.02 453.03 352.73 454.47 C 355.51 455.28 357.46 452.87 359.08 451.04 C 362.25 447.12 364.68 442.69 367.54 438.55 C 376.81 424.49 389.09 412.10 404.13 404.28 Z" />
<path fill="#040303" opacity="1.00" d=" M 552.56 403.89 C 553.10 403.79 554.17 403.59 554.71 403.49 C 560.89 409.31 564.10 417.39 567.06 425.16 C 573.58 443.60 576.07 463.59 573.40 483.02 C 570.63 503.57 564.48 523.67 555.25 542.24 C 551.82 548.93 548.04 555.50 543.36 561.41 C 541.52 563.81 539.05 565.60 536.53 567.22 C 535.93 564.81 535.54 562.29 536.72 559.98 C 545.34 537.98 552.27 515.29 556.90 492.10 C 560.69 472.02 563.31 451.19 559.39 430.93 C 557.72 421.75 552.73 413.36 552.56 403.89 Z" />
<path fill="#040303" opacity="1.00" d=" M 8.75 560.25 C 14.24 560.84 19.01 564.89 20.66 570.12 C 26.90 589.68 33.82 609.05 41.93 627.92 C 47.21 639.90 52.75 651.95 60.69 662.45 C 62.11 664.45 63.20 666.65 64.14 668.91 C 58.32 665.60 54.13 660.24 49.67 655.39 C 32.34 634.95 17.25 611.77 10.55 585.54 C 8.59 577.38 5.36 568.48 8.75 560.25 Z" />
<path fill="#040303" opacity="1.00" d=" M 782.47 568.07 C 782.64 564.43 786.19 562.74 789.04 561.35 C 791.25 562.58 793.79 563.66 795.09 565.99 C 797.53 570.22 797.84 575.26 797.86 580.04 C 797.72 593.09 793.98 605.72 790.24 618.12 C 785.84 632.32 780.95 646.41 774.60 659.87 C 772.48 664.17 770.46 668.85 766.38 671.69 C 766.50 664.12 769.86 657.17 771.51 649.89 C 778.11 623.12 781.42 595.60 782.47 568.07 Z" />
<path fill="#040303" opacity="1.00" d=" M 594.83 565.43 C 595.42 565.41 596.61 565.37 597.20 565.35 C 596.14 569.78 594.07 573.87 591.89 577.84 C 588.42 584.17 585.62 590.84 582.13 597.16 C 572.34 615.55 560.51 633.00 545.76 647.79 C 536.69 656.64 526.67 664.85 514.95 669.94 C 511.39 671.52 507.54 672.41 503.65 672.57 C 503.19 672.19 502.28 671.44 501.83 671.06 C 501.76 670.67 501.60 669.90 501.53 669.51 C 503.31 667.58 505.19 665.73 507.38 664.26 C 520.89 655.51 531.86 643.54 542.71 631.80 C 557.00 615.97 570.35 599.32 583.42 582.48 C 587.63 577.08 591.20 571.23 594.83 565.43 Z" />
<path fill="#040303" opacity="1.00" d=" M 518.95 580.60 C 521.24 579.25 523.52 580.65 524.83 582.61 C 508.55 613.42 486.22 641.47 458.10 662.25 C 451.79 666.31 446.06 671.44 439.01 674.22 C 442.60 667.37 448.68 662.26 452.44 655.53 C 453.44 653.91 453.59 651.99 453.85 650.18 C 449.04 650.72 444.92 653.38 440.79 655.69 C 423.50 665.70 406.19 675.72 388.20 684.44 C 351.47 702.40 312.06 716.32 271.05 719.49 C 240.15 722.02 208.37 717.16 180.30 703.71 C 178.03 702.65 176.42 700.65 174.84 698.80 C 182.62 697.97 190.30 699.81 197.99 700.70 C 225.46 704.62 253.30 706.85 281.04 704.97 C 301.59 703.55 322.06 699.74 341.43 692.63 C 376.50 680.19 411.35 665.60 441.67 643.69 C 449.81 637.90 457.11 631.07 464.44 624.32 C 465.95 622.67 468.14 622.23 470.25 621.89 C 471.12 625.97 471.62 630.13 472.82 634.15 C 478.07 632.04 481.74 627.57 485.23 623.32 C 492.49 614.14 498.90 604.33 505.86 594.94 C 509.79 589.81 513.58 584.32 518.95 580.60 Z" />
<path fill="#040303" opacity="1.00" d=" M 288.73 588.19 C 292.94 590.00 296.81 592.61 301.27 593.85 C 309.66 596.19 318.35 597.35 327.03 597.82 C 341.66 599.11 356.46 598.53 370.97 596.28 C 377.43 595.45 383.43 591.70 390.09 592.58 C 394.18 593.05 398.32 596.58 397.65 601.03 C 397.16 608.93 389.68 613.99 383.12 617.02 C 368.21 623.16 351.22 624.19 335.63 620.13 C 320.37 616.14 306.34 607.90 295.05 596.93 C 292.42 594.44 290.24 591.49 288.73 588.19 Z" />
<path fill="#040303" opacity="1.00" d=" M 436.86 610.07 C 440.81 608.03 444.73 605.75 449.18 605.02 C 444.69 612.08 438.12 617.41 431.90 622.87 C 413.31 638.31 392.59 651.52 369.85 659.91 C 363.92 661.96 357.92 664.23 351.59 664.52 C 354.01 658.83 359.90 656.01 364.59 652.48 C 387.90 637.07 412.20 623.19 436.86 610.07 Z" />
<path fill="#040303" opacity="1.00" d=" M 73.11 620.74 C 72.33 618.41 70.60 615.39 72.84 613.35 C 77.13 613.73 80.19 617.12 82.72 620.27 C 89.26 628.25 92.14 638.48 98.59 646.53 C 109.47 660.53 123.06 672.14 136.92 683.10 C 149.41 692.80 162.37 701.94 176.02 709.95 C 192.99 719.81 212.39 724.38 229.68 733.57 C 229.68 734.08 229.67 735.09 229.67 735.59 C 219.38 735.85 209.19 734.04 199.10 732.25 C 166.24 725.89 136.47 707.60 113.82 683.25 C 96.74 665.01 82.92 643.72 73.11 620.74 Z" />
<path fill="#040303" opacity="1.00" d=" M 435.99 720.07 C 444.70 717.42 453.90 712.80 463.14 715.45 C 463.56 716.61 464.00 717.79 464.45 718.96 C 462.20 726.13 456.55 731.36 450.93 736.01 C 439.22 745.42 426.07 752.86 412.71 759.64 C 357.94 786.70 297.61 801.14 236.98 806.67 C 226.70 807.55 216.34 808.05 206.04 807.27 C 202.46 806.84 198.66 806.51 195.49 804.65 C 195.41 804.05 195.23 802.85 195.14 802.25 C 200.19 798.42 206.83 797.92 212.87 796.88 C 237.79 794.08 262.06 787.37 285.84 779.61 C 323.90 767.01 360.75 751.14 397.63 735.49 C 410.33 730.15 423.03 724.77 435.99 720.07 Z" />
<path fill="#040303" opacity="1.00" d=" M 226.90 753.95 C 268.87 749.97 310.22 741.40 351.33 732.30 C 288.94 760.73 219.50 774.62 150.98 769.29 C 130.39 767.48 109.73 764.37 90.14 757.57 C 84.91 755.55 79.36 753.65 75.18 749.77 C 72.89 748.00 74.64 744.73 76.85 743.83 C 83.23 740.83 90.55 741.34 97.42 741.48 C 120.24 742.87 142.71 747.42 165.04 752.06 C 185.28 757.03 206.35 755.66 226.90 753.95 Z" />
<path fill="#040303" opacity="1.00" d=" M 21.69 766.78 C 24.18 765.05 25.92 767.97 27.47 769.52 C 37.85 781.73 51.91 790.08 66.31 796.71 C 85.50 805.41 105.91 811.04 126.49 815.34 C 154.01 820.96 182.02 823.99 210.08 825.04 C 224.71 825.50 239.40 825.47 253.98 824.01 C 258.29 823.47 262.62 822.94 266.97 823.04 C 262.84 826.83 257.11 827.69 251.90 829.12 C 230.32 834.09 208.06 835.46 185.97 835.26 C 158.42 834.69 130.92 831.30 104.10 824.94 C 85.77 820.46 67.64 814.35 51.32 804.73 C 41.38 798.74 31.88 791.36 25.58 781.46 C 23.00 777.08 20.45 772.00 21.69 766.78 Z" />
<path fill="#040303" opacity="1.00" d=" M 603.33 809.34 C 606.00 805.68 607.73 799.91 613.08 799.64 C 615.53 799.18 616.72 802.03 616.37 804.05 C 615.75 809.04 613.57 813.66 611.35 818.12 C 605.26 829.65 597.61 840.27 589.67 850.57 C 576.75 867.39 560.05 881.27 541.32 891.19 C 535.26 894.24 528.95 897.43 522.01 897.61 C 522.49 893.59 525.98 891.18 528.98 888.99 C 535.85 884.22 542.90 879.68 549.18 874.12 C 570.51 855.56 587.86 832.89 603.33 809.34 Z" />
<path fill="#040303" opacity="1.00" d=" M 452.67 832.58 C 455.02 830.99 457.89 831.03 460.61 831.22 C 463.06 836.88 458.34 841.88 454.79 845.76 C 443.60 856.79 429.79 864.67 416.05 872.08 C 392.35 884.73 366.91 894.95 340.11 898.36 C 332.60 899.11 324.79 899.81 317.54 897.24 C 318.23 895.75 319.10 894.17 320.81 893.69 C 327.00 891.40 333.70 891.25 340.09 889.75 C 357.16 885.93 373.15 878.50 388.54 870.37 C 410.50 858.79 431.23 845.07 452.67 832.58 Z" />
</g>
</svg>
